{"title":"Ek thi daayan 2013 PDVD (ICTV) - Hindi","uid":8390041,"size":711110660,"categoryP":"video","categoryS":"movies","magnet":"?xt=urn:btih:81625cc27ddde7cc4f5fa793cb0f029bb5c0ae6d&amp;dn=Ek+thi+daayan+2013+PDVD+%28ICTV%29+-+Hindi&amp;tr=udp%3A%2F%2Ftracker.openbittorrent.com%3A80&amp;tr=udp%3A%2F%2Fopen.demonii.com%3A1337&amp;tr=udp%3A%2F%2Ftracker.coppersurfer.tk%3A6969&amp;tr=udp%3A%2F%2Fexodus.desync.com%3A6969","seeders":1,"leechers":0,"uploader":"SJonam","files":1,"time":1366401665,"description":" &lt;a href=&quot;http://desibbrg.org/images/66952052392581364616.gif&quot; rel=&quot;nofollow&quot; target=&quot;_NEW&quot;&gt;http://desibbrg.org/images/66952052392581364616.gif&lt;/a&gt; &lt;a href=&quot;\nhttp://desibbrg.org/images/88075338752205611649.jpg&quot; rel=&quot;nofollow&quot; target=&quot;_NEW&quot;&gt;\nhttp://desibbrg.org/images/88075338752205611649.jpg&lt;/a&gt; &lt;a href=&quot;\nhttp://desibbrg.org/images/57590935110518907984.png&quot; rel=&quot;nofollow&quot; target=&quot;_NEW&quot;&gt;\nhttp://desibbrg.org/images/57590935110518907984.png&lt;/a&gt; &lt;a href=&quot;\nhttp://desibbrg.org/images/29052953997767343271.png&quot; rel=&quot;nofollow&quot; target=&quot;_NEW&quot;&gt;\nhttp://desibbrg.org/images/29052953997767343271.png&lt;/a&gt; &lt;a href=&quot;\nhttp://desibbrg.org/images/59055790832094295569.png&quot; rel=&quot;nofollow&quot; target=&quot;_NEW&quot;&gt;\nhttp://desibbrg.org/images/59055790832094295569.png&lt;/a&gt; &lt;a href=&quot;\nhttp://desibbrg.org/images/63237748980397699219.png&quot; rel=&quot;nofollow&quot; target=&quot;_NEW&quot;&gt;\nhttp://desibbrg.org/images/63237748980397699219.png&lt;/a&gt;\n\nMedia Info - \nVideo\nID : 224 (0xE0)\nFormat : MPEG Video\nFormat version : Version 1\nFormat settings, BVOP : Yes\nFormat settings, Matrix : Custom\nDuration : 2h 6mn\nBit rate mode : Variable\nBit rate : 672 Kbps\nWidth : 352 pixels\nHeight : 288 pixels\nDisplay aspect ratio : 4:3\nFrame rate : 25.000 fps\nStandard : PAL\nColor space : YUV\nBit depth : 8 bits\nScan type : Progressive\nCompression mode : Lossy\nBits/(Pixel*Frame) : 0.265\nStream size : 607 MiB (89%)\nWriting library : TMPGEnc Video Mastering Works 5 Version. 5.0.5.32\n\nAudio\nID : 192 (0xC0)\nFormat : MPEG Audio\nFormat version : Version 1\nFormat profile : Layer 2\nDuration : 2h 6mn\nBit rate mode : Constant\nBit rate : 64.0 Kbps\nChannel(s) : 2 channels\nSampling rate : 48.0 KHz\nCompression mode : Lossy\nStream size : 58.1 MiB (9%)\n\nRipper : Master King\n\nSeeding 24x7... Extreme Seeding...\n\n\nEnjoy!\n","torrent":{"xt":"urn:btih:81625cc27ddde7cc4f5fa793cb0f029bb5c0ae6d","amp;dn":"Ek+thi+daayan+2013+PDVD+%28ICTV%29+-+Hindi","amp;tr":["udp%3A%2F%2Ftracker.openbittorrent.com%3A80","udp%3A%2F%2Fopen.demonii.com%3A1337","udp%3A%2F%2Ftracker.coppersurfer.tk%3A6969","udp%3A%2F%2Fexodus.desync.com%3A6969"],"infoHash":"81625cc27ddde7cc4f5fa793cb0f029bb5c0ae6d","infoHashBuffer":{"type":"Buffer","data":[129,98,92,194,125,221,231,204,79,95,167,147,203,15,2,155,181,192,174,109]},"announce":[],"urlList":[]}}